M48
; DRILL file {KiCad 8.0.8} date 2025-02-03T23:06:43+0530
; FORMAT={-:-/ absolute / inch / decimal}
; #@! TF.CreationDate,2025-02-03T23:06:43+05:30
; #@! TF.GenerationSoftware,Kicad,Pcbnew,8.0.8
; #@! TF.FileFunction,Plated,1,2,PTH
FMAT,2
INCH
; #@! TA.AperFunction,Plated,PTH,ComponentDrill
T1C0.0197
; #@! TA.AperFunction,Plated,PTH,ComponentDrill
T2C0.0315
; #@! TA.AperFunction,Plated,PTH,ComponentDrill
T3C0.0354
; #@! TA.AperFunction,Plated,PTH,ComponentDrill
T4C0.0394
; #@! TA.AperFunction,Plated,PTH,ComponentDrill
T5C0.0512
%
G90
G05
T2
X4.0039Y-2.7
X4.0039Y-2.8
X4.0039Y-2.9
X4.0039Y-3.0
X4.3039Y-2.7
X4.3039Y-2.8
X4.3039Y-2.9
X4.3039Y-3.0
X4.55Y-2.7
X4.55Y-2.9
X4.85Y-2.7
X4.85Y-2.9
X4.95Y-3.2
X4.95Y-3.4
X5.25Y-2.7031
X5.25Y-2.9
X5.25Y-3.2
X5.25Y-3.4
T3
X3.5638Y-2.75
X3.5638Y-2.8484
X3.5638Y-2.9469
X3.8Y-2.75
X3.8Y-2.8484
X3.8Y-2.9469
X5.05Y-2.7
X5.05Y-2.8
X5.05Y-2.9
T4
X3.5504Y-3.45
X3.8496Y-3.45
T5
X4.1539Y-3.3516
X4.1539Y-3.5484
X4.6461Y-3.3516
X4.6461Y-3.5484
T1
G00X5.4681Y-2.9799
M15
G01X5.4957Y-2.9799
M16
G05
G00X5.4681Y-3.3201
M15
G01X5.4957Y-3.3201
M16
G05
G00X5.6177Y-2.9799
M15
G01X5.6453Y-2.9799
M16
G05
G00X5.6177Y-3.3201
M15
G01X5.6453Y-3.3201
M16
G05
M30
