%TF.GenerationSoftware,KiCad,Pcbnew,8.0.8*%
%TF.CreationDate,2025-02-03T23:06:03+05:30*%
%TF.ProjectId,pomodoro_timer,706f6d6f-646f-4726-9f5f-74696d65722e,rev?*%
%TF.SameCoordinates,Original*%
%TF.FileFunction,Copper,L1,Top*%
%TF.FilePolarity,Positive*%
%FSLAX46Y46*%
G04 Gerber Fmt 4.6, Leading zero omitted, Abs format (unit mm)*
G04 Created by KiCad (PCBNEW 8.0.8) date 2025-02-03 23:06:03*
%MOMM*%
%LPD*%
G01*
G04 APERTURE LIST*
G04 Aperture macros list*
%AMRoundRect*
0 Rectangle with rounded corners*
0 $1 Rounding radius*
0 $2 $3 $4 $5 $6 $7 $8 $9 X,Y pos of 4 corners*
0 Add a 4 corners polygon primitive as box body*
4,1,4,$2,$3,$4,$5,$6,$7,$8,$9,$2,$3,0*
0 Add four circle primitives for the rounded corners*
1,1,$1+$1,$2,$3*
1,1,$1+$1,$4,$5*
1,1,$1+$1,$6,$7*
1,1,$1+$1,$8,$9*
0 Add four rect primitives between the rounded corners*
20,1,$1+$1,$2,$3,$4,$5,0*
20,1,$1+$1,$4,$5,$6,$7,0*
20,1,$1+$1,$6,$7,$8,$9,0*
20,1,$1+$1,$8,$9,$2,$3,0*%
G04 Aperture macros list end*
%TA.AperFunction,ComponentPad*%
%ADD10R,1.600000X1.600000*%
%TD*%
%TA.AperFunction,ComponentPad*%
%ADD11O,1.600000X1.600000*%
%TD*%
%TA.AperFunction,ComponentPad*%
%ADD12R,1.800000X1.800000*%
%TD*%
%TA.AperFunction,ComponentPad*%
%ADD13C,1.800000*%
%TD*%
%TA.AperFunction,ComponentPad*%
%ADD14C,1.600000*%
%TD*%
%TA.AperFunction,ComponentPad*%
%ADD15O,3.200000X1.900000*%
%TD*%
%TA.AperFunction,ComponentPad*%
%ADD16R,2.000000X2.000000*%
%TD*%
%TA.AperFunction,ComponentPad*%
%ADD17C,2.000000*%
%TD*%
%TA.AperFunction,SMDPad,CuDef*%
%ADD18RoundRect,0.175000X0.625000X-0.175000X0.625000X0.175000X-0.625000X0.175000X-0.625000X-0.175000X0*%
%TD*%
%TA.AperFunction,SMDPad,CuDef*%
%ADD19RoundRect,0.200000X0.600000X-0.200000X0.600000X0.200000X-0.600000X0.200000X-0.600000X-0.200000X0*%
%TD*%
%TA.AperFunction,SMDPad,CuDef*%
%ADD20RoundRect,0.225000X0.575000X-0.225000X0.575000X0.225000X-0.575000X0.225000X-0.575000X-0.225000X0*%
%TD*%
%TA.AperFunction,HeatsinkPad*%
%ADD21O,1.700000X1.000000*%
%TD*%
%TA.AperFunction,Conductor*%
%ADD22C,0.200000*%
%TD*%
G04 APERTURE END LIST*
D10*
%TO.P,U1,1,~{RESET}/PB5*%
%TO.N,unconnected-(U1-~{RESET}{slash}PB5-Pad1)*%
X101700000Y-68580000D03*
D11*
%TO.P,U1,2,XTAL1/PB3*%
%TO.N,Net-(SW2-A)*%
X101700000Y-71120000D03*
%TO.P,U1,3,XTAL2/PB4*%
%TO.N,unconnected-(U1-XTAL2{slash}PB4-Pad3)*%
X101700000Y-73660000D03*
%TO.P,U1,4,GND*%
%TO.N,GND*%
X101700000Y-76200000D03*
%TO.P,U1,5,AREF/PB0*%
%TO.N,Net-(U1-AREF{slash}PB0)*%
X109320000Y-76200000D03*
%TO.P,U1,6,PB1*%
%TO.N,Net-(U1-PB1)*%
X109320000Y-73660000D03*
%TO.P,U1,7,PB2*%
%TO.N,Net-(U1-PB2)*%
X109320000Y-71120000D03*
%TO.P,U1,8,VCC*%
%TO.N,VCC*%
X109320000Y-68580000D03*
%TD*%
D12*
%TO.P,SW2,1,A*%
%TO.N,Net-(SW2-A)*%
X96520000Y-69850000D03*
D13*
%TO.P,SW2,2,B*%
%TO.N,Net-(BZ1-+)*%
X96520000Y-72350000D03*
%TO.P,SW2,3*%
%TO.N,N/C*%
X96520000Y-74850000D03*
%TO.P,SW2,4*%
X90520000Y-69850000D03*
%TO.P,SW2,5*%
X90520000Y-72350000D03*
%TO.P,SW2,6*%
X90520000Y-74850000D03*
%TD*%
D14*
%TO.P,CC2_R1,1*%
%TO.N,Net-(J1-CC2)*%
X133350000Y-81280000D03*
D11*
%TO.P,CC2_R1,2*%
%TO.N,GND*%
X125730000Y-81280000D03*
%TD*%
D15*
%TO.P,SW1,1,1*%
%TO.N,Net-(U1-AREF{slash}PB0)*%
X105510000Y-85130000D03*
X118010000Y-85130000D03*
%TO.P,SW1,2,2*%
%TO.N,GND*%
X105510000Y-90130000D03*
X118010000Y-90130000D03*
%TD*%
D14*
%TO.P,LED1_R1,1*%
%TO.N,Net-(U1-PB1)*%
X115570000Y-73660000D03*
D11*
%TO.P,LED1_R1,2*%
%TO.N,Net-(D1-A2)*%
X123190000Y-73660000D03*
%TD*%
D12*
%TO.P,D1,1,A1*%
%TO.N,Net-(D1-A1)*%
X128270000Y-68580000D03*
D13*
%TO.P,D1,2,K*%
%TO.N,GND*%
X128270000Y-71120000D03*
%TO.P,D1,3,A2*%
%TO.N,Net-(D1-A2)*%
X128270000Y-73660000D03*
%TD*%
D14*
%TO.P,C1,1*%
%TO.N,VCC*%
X133350000Y-68660000D03*
%TO.P,C1,2*%
%TO.N,GND*%
X133350000Y-73660000D03*
%TD*%
%TO.P,LED2_R1,1*%
%TO.N,Net-(U1-PB2)*%
X115570000Y-68580000D03*
D11*
%TO.P,LED2_R1,2*%
%TO.N,Net-(D1-A1)*%
X123190000Y-68580000D03*
%TD*%
D14*
%TO.P,CC1_R1,1*%
%TO.N,Net-(J1-CC1)*%
X133350000Y-86360000D03*
D11*
%TO.P,CC1_R1,2*%
%TO.N,GND*%
X125730000Y-86360000D03*
%TD*%
D16*
%TO.P,BZ1,1,+*%
%TO.N,Net-(BZ1-+)*%
X97780000Y-87630000D03*
D17*
%TO.P,BZ1,2,-*%
%TO.N,GND*%
X90180000Y-87630000D03*
%TD*%
D18*
%TO.P,J1,A5,CC1*%
%TO.N,Net-(J1-CC1)*%
X139060000Y-80510000D03*
D19*
%TO.P,J1,A9,VBUS*%
%TO.N,VCC*%
X139060000Y-78490000D03*
D20*
%TO.P,J1,A12,GND*%
%TO.N,GND*%
X139060000Y-77260000D03*
D18*
%TO.P,J1,B5,CC2*%
%TO.N,Net-(J1-CC2)*%
X139060000Y-79510000D03*
D19*
%TO.P,J1,B9,VBUS*%
%TO.N,VCC*%
X139060000Y-81530000D03*
D20*
%TO.P,J1,B12,GND*%
%TO.N,GND*%
X139060000Y-82760000D03*
D21*
%TO.P,J1,S1,SHIELD*%
X139240000Y-84330000D03*
X143040000Y-84330000D03*
X139240000Y-75690000D03*
X143040000Y-75690000D03*
%TD*%
D22*
%TO.N,GND*%
X139060000Y-84150000D02*
X139240000Y-84330000D01*
X139060000Y-82760000D02*
X139060000Y-84150000D01*
X139240000Y-77080000D02*
X139060000Y-77260000D01*
X139240000Y-75690000D02*
X139240000Y-77080000D01*
%TO.N,Net-(U1-PB2)*%
X113030000Y-71120000D02*
X115570000Y-68580000D01*
X109320000Y-71120000D02*
X113030000Y-71120000D01*
%TO.N,GND*%
X141430000Y-82760000D02*
X139060000Y-82760000D01*
X141640000Y-77470000D02*
X141640000Y-82550000D01*
X141430000Y-77260000D02*
X141640000Y-77470000D01*
X141640000Y-82550000D02*
X141430000Y-82760000D01*
X139060000Y-77260000D02*
X141430000Y-77260000D01*
%TO.N,Net-(U1-AREF{slash}PB0)*%
X118010000Y-85130000D02*
X105510000Y-85130000D01*
%TO.N,GND*%
X118010000Y-90130000D02*
X105510000Y-90130000D01*
X101740000Y-90130000D02*
X101700000Y-90170000D01*
X105510000Y-90130000D02*
X101740000Y-90130000D01*
X101700000Y-90170000D02*
X101700000Y-96420000D01*
X101700000Y-76200000D02*
X101700000Y-90170000D01*
%TO.N,Net-(U1-AREF{slash}PB0)*%
X118010000Y-84890000D02*
X118010000Y-85130000D01*
X109320000Y-76200000D02*
X118010000Y-84890000D01*
%TO.N,Net-(BZ1-+)*%
X97780000Y-73610000D02*
X97780000Y-87630000D01*
X96520000Y-72350000D02*
X97780000Y-73610000D01*
%TO.N,GND*%
X90180000Y-87630000D02*
X90180000Y-96510000D01*
X134620000Y-91440000D02*
X121920000Y-91440000D01*
X133350000Y-77470000D02*
X125730000Y-77470000D01*
X90180000Y-96510000D02*
X90170000Y-96520000D01*
X121920000Y-91440000D02*
X121920000Y-87630000D01*
X120650000Y-96520000D02*
X121920000Y-95250000D01*
X133350000Y-73660000D02*
X130810000Y-73660000D01*
X121920000Y-87630000D02*
X123190000Y-86360000D01*
X101600000Y-96520000D02*
X101700000Y-96420000D01*
X133350000Y-73660000D02*
X133350000Y-77470000D01*
X139240000Y-84330000D02*
X139240000Y-86820000D01*
X121920000Y-95250000D02*
X121920000Y-91440000D01*
X101600000Y-96520000D02*
X120650000Y-96520000D01*
X123190000Y-86360000D02*
X125730000Y-86360000D01*
X130810000Y-73660000D02*
X128270000Y-71120000D01*
X139240000Y-86820000D02*
X134620000Y-91440000D01*
X125730000Y-77470000D02*
X125730000Y-81280000D01*
X90170000Y-96520000D02*
X101600000Y-96520000D01*
X125730000Y-81280000D02*
X125730000Y-86360000D01*
%TO.N,VCC*%
X140970000Y-78740000D02*
X140970000Y-81280000D01*
X135890000Y-75950000D02*
X135890000Y-68580000D01*
X139516602Y-78490000D02*
X139766602Y-78740000D01*
X139060000Y-78490000D02*
X138430000Y-78490000D01*
X109320000Y-64870000D02*
X109320000Y-68590000D01*
X139060000Y-78490000D02*
X139516602Y-78490000D01*
X135890000Y-64770000D02*
X109220000Y-64770000D01*
X139766602Y-78740000D02*
X140970000Y-78740000D01*
X135810000Y-68660000D02*
X135890000Y-68580000D01*
X133350000Y-68660000D02*
X135810000Y-68660000D01*
X139310000Y-81280000D02*
X139060000Y-81530000D01*
X135890000Y-68580000D02*
X135890000Y-64770000D01*
X109220000Y-64770000D02*
X109320000Y-64870000D01*
X135890000Y-75950000D02*
X138430000Y-78490000D01*
X140970000Y-81280000D02*
X139310000Y-81280000D01*
%TO.N,Net-(J1-CC1)*%
X139060000Y-80510000D02*
X137883398Y-80510000D01*
X137883398Y-80510000D02*
X133350000Y-85043398D01*
X133350000Y-85043398D02*
X133350000Y-86360000D01*
%TO.N,Net-(J1-CC2)*%
X135120000Y-79510000D02*
X133350000Y-81280000D01*
X139060000Y-79510000D02*
X135120000Y-79510000D01*
%TO.N,Net-(D1-A1)*%
X123190000Y-68580000D02*
X128270000Y-68580000D01*
%TO.N,Net-(D1-A2)*%
X123190000Y-73660000D02*
X128270000Y-73660000D01*
%TO.N,Net-(U1-PB1)*%
X109320000Y-73670000D02*
X115560000Y-73670000D01*
X115560000Y-73670000D02*
X115570000Y-73660000D01*
%TO.N,Net-(SW2-A)*%
X97800000Y-71130000D02*
X96520000Y-69850000D01*
X101700000Y-71130000D02*
X97800000Y-71130000D01*
%TO.N,GND*%
X139240000Y-84330000D02*
X143040000Y-84330000D01*
X139240000Y-75690000D02*
X143040000Y-75690000D01*
%TD*%
M02*
