%TF.GenerationSoftware,KiCad,Pcbnew,8.0.8*%
%TF.CreationDate,2025-02-03T23:06:03+05:30*%
%TF.ProjectId,pomodoro_timer,706f6d6f-646f-4726-9f5f-74696d65722e,rev?*%
%TF.SameCoordinates,Original*%
%TF.FileFunction,Soldermask,Top*%
%TF.FilePolarity,Negative*%
%FSLAX46Y46*%
G04 Gerber Fmt 4.6, Leading zero omitted, Abs format (unit mm)*
G04 Created by KiCad (PCBNEW 8.0.8) date 2025-02-03 23:06:03*
%MOMM*%
%LPD*%
G01*
G04 APERTURE LIST*
G04 Aperture macros list*
%AMRoundRect*
0 Rectangle with rounded corners*
0 $1 Rounding radius*
0 $2 $3 $4 $5 $6 $7 $8 $9 X,Y pos of 4 corners*
0 Add a 4 corners polygon primitive as box body*
4,1,4,$2,$3,$4,$5,$6,$7,$8,$9,$2,$3,0*
0 Add four circle primitives for the rounded corners*
1,1,$1+$1,$2,$3*
1,1,$1+$1,$4,$5*
1,1,$1+$1,$6,$7*
1,1,$1+$1,$8,$9*
0 Add four rect primitives between the rounded corners*
20,1,$1+$1,$2,$3,$4,$5,0*
20,1,$1+$1,$4,$5,$6,$7,0*
20,1,$1+$1,$6,$7,$8,$9,0*
20,1,$1+$1,$8,$9,$2,$3,0*%
G04 Aperture macros list end*
%ADD10R,1.600000X1.600000*%
%ADD11O,1.600000X1.600000*%
%ADD12R,1.800000X1.800000*%
%ADD13C,1.800000*%
%ADD14C,2.200000*%
%ADD15C,1.600000*%
%ADD16O,3.200000X1.900000*%
%ADD17R,2.000000X2.000000*%
%ADD18C,2.000000*%
%ADD19RoundRect,0.175000X0.625000X-0.175000X0.625000X0.175000X-0.625000X0.175000X-0.625000X-0.175000X0*%
%ADD20RoundRect,0.200000X0.600000X-0.200000X0.600000X0.200000X-0.600000X0.200000X-0.600000X-0.200000X0*%
%ADD21RoundRect,0.225000X0.575000X-0.225000X0.575000X0.225000X-0.575000X0.225000X-0.575000X-0.225000X0*%
%ADD22O,1.700000X1.000000*%
G04 APERTURE END LIST*
D10*
%TO.C,U1*%
X101700000Y-68580000D03*
D11*
X101700000Y-71120000D03*
X101700000Y-73660000D03*
X101700000Y-76200000D03*
X109320000Y-76200000D03*
X109320000Y-73660000D03*
X109320000Y-71120000D03*
X109320000Y-68580000D03*
%TD*%
D12*
%TO.C,SW2*%
X96520000Y-69850000D03*
D13*
X96520000Y-72350000D03*
X96520000Y-74850000D03*
X90520000Y-69850000D03*
X90520000Y-72350000D03*
X90520000Y-74850000D03*
%TD*%
D14*
%TO.C,REF\u002A\u002A*%
X142240000Y-95250000D03*
%TD*%
%TO.C,REF\u002A\u002A*%
X142240000Y-64770000D03*
%TD*%
D15*
%TO.C,CC2_R1*%
X133350000Y-81280000D03*
D11*
X125730000Y-81280000D03*
%TD*%
D16*
%TO.C,SW1*%
X105510000Y-85130000D03*
X118010000Y-85130000D03*
X105510000Y-90130000D03*
X118010000Y-90130000D03*
%TD*%
D15*
%TO.C,LED1_R1*%
X115570000Y-73660000D03*
D11*
X123190000Y-73660000D03*
%TD*%
D12*
%TO.C,D1*%
X128270000Y-68580000D03*
D13*
X128270000Y-71120000D03*
X128270000Y-73660000D03*
%TD*%
D15*
%TO.C,C1*%
X133350000Y-68660000D03*
X133350000Y-73660000D03*
%TD*%
%TO.C,LED2_R1*%
X115570000Y-68580000D03*
D11*
X123190000Y-68580000D03*
%TD*%
D15*
%TO.C,CC1_R1*%
X133350000Y-86360000D03*
D11*
X125730000Y-86360000D03*
%TD*%
D14*
%TO.C,REF\u002A\u002A*%
X85090000Y-64770000D03*
%TD*%
%TO.C,REF\u002A\u002A*%
X85090000Y-95250000D03*
%TD*%
D17*
%TO.C,BZ1*%
X97780000Y-87630000D03*
D18*
X90180000Y-87630000D03*
%TD*%
D19*
%TO.C,J1*%
X139060000Y-80510000D03*
D20*
X139060000Y-78490000D03*
D21*
X139060000Y-77260000D03*
D19*
X139060000Y-79510000D03*
D20*
X139060000Y-81530000D03*
D21*
X139060000Y-82760000D03*
D22*
X139240000Y-84330000D03*
X143040000Y-84330000D03*
X139240000Y-75690000D03*
X143040000Y-75690000D03*
%TD*%
M02*
