%TF.GenerationSoftware,KiCad,Pcbnew,8.0.8*%
%TF.CreationDate,2025-02-03T23:06:03+05:30*%
%TF.ProjectId,pomodoro_timer,706f6d6f-646f-4726-9f5f-74696d65722e,rev?*%
%TF.SameCoordinates,Original*%
%TF.FileFunction,Legend,Top*%
%TF.FilePolarity,Positive*%
%FSLAX46Y46*%
G04 Gerber Fmt 4.6, Leading zero omitted, Abs format (unit mm)*
G04 Created by KiCad (PCBNEW 8.0.8) date 2025-02-03 23:06:03*
%MOMM*%
%LPD*%
G01*
G04 APERTURE LIST*
%ADD10C,0.100000*%
%ADD11C,0.150000*%
%ADD12C,0.120000*%
G04 APERTURE END LIST*
D10*
X123493884Y-96392419D02*
X123493884Y-95392419D01*
X123493884Y-95392419D02*
X123874836Y-95392419D01*
X123874836Y-95392419D02*
X123970074Y-95440038D01*
X123970074Y-95440038D02*
X124017693Y-95487657D01*
X124017693Y-95487657D02*
X124065312Y-95582895D01*
X124065312Y-95582895D02*
X124065312Y-95725752D01*
X124065312Y-95725752D02*
X124017693Y-95820990D01*
X124017693Y-95820990D02*
X123970074Y-95868609D01*
X123970074Y-95868609D02*
X123874836Y-95916228D01*
X123874836Y-95916228D02*
X123493884Y-95916228D01*
X124636741Y-96392419D02*
X124541503Y-96344800D01*
X124541503Y-96344800D02*
X124493884Y-96297180D01*
X124493884Y-96297180D02*
X124446265Y-96201942D01*
X124446265Y-96201942D02*
X124446265Y-95916228D01*
X124446265Y-95916228D02*
X124493884Y-95820990D01*
X124493884Y-95820990D02*
X124541503Y-95773371D01*
X124541503Y-95773371D02*
X124636741Y-95725752D01*
X124636741Y-95725752D02*
X124779598Y-95725752D01*
X124779598Y-95725752D02*
X124874836Y-95773371D01*
X124874836Y-95773371D02*
X124922455Y-95820990D01*
X124922455Y-95820990D02*
X124970074Y-95916228D01*
X124970074Y-95916228D02*
X124970074Y-96201942D01*
X124970074Y-96201942D02*
X124922455Y-96297180D01*
X124922455Y-96297180D02*
X124874836Y-96344800D01*
X124874836Y-96344800D02*
X124779598Y-96392419D01*
X124779598Y-96392419D02*
X124636741Y-96392419D01*
X125398646Y-96392419D02*
X125398646Y-95725752D01*
X125398646Y-95820990D02*
X125446265Y-95773371D01*
X125446265Y-95773371D02*
X125541503Y-95725752D01*
X125541503Y-95725752D02*
X125684360Y-95725752D01*
X125684360Y-95725752D02*
X125779598Y-95773371D01*
X125779598Y-95773371D02*
X125827217Y-95868609D01*
X125827217Y-95868609D02*
X125827217Y-96392419D01*
X125827217Y-95868609D02*
X125874836Y-95773371D01*
X125874836Y-95773371D02*
X125970074Y-95725752D01*
X125970074Y-95725752D02*
X126112931Y-95725752D01*
X126112931Y-95725752D02*
X126208170Y-95773371D01*
X126208170Y-95773371D02*
X126255789Y-95868609D01*
X126255789Y-95868609D02*
X126255789Y-96392419D01*
X126874836Y-96392419D02*
X126779598Y-96344800D01*
X126779598Y-96344800D02*
X126731979Y-96297180D01*
X126731979Y-96297180D02*
X126684360Y-96201942D01*
X126684360Y-96201942D02*
X126684360Y-95916228D01*
X126684360Y-95916228D02*
X126731979Y-95820990D01*
X126731979Y-95820990D02*
X126779598Y-95773371D01*
X126779598Y-95773371D02*
X126874836Y-95725752D01*
X126874836Y-95725752D02*
X127017693Y-95725752D01*
X127017693Y-95725752D02*
X127112931Y-95773371D01*
X127112931Y-95773371D02*
X127160550Y-95820990D01*
X127160550Y-95820990D02*
X127208169Y-95916228D01*
X127208169Y-95916228D02*
X127208169Y-96201942D01*
X127208169Y-96201942D02*
X127160550Y-96297180D01*
X127160550Y-96297180D02*
X127112931Y-96344800D01*
X127112931Y-96344800D02*
X127017693Y-96392419D01*
X127017693Y-96392419D02*
X126874836Y-96392419D01*
X127493884Y-95392419D02*
X128065312Y-95392419D01*
X127779598Y-96392419D02*
X127779598Y-95392419D01*
X128398646Y-96392419D02*
X128398646Y-95725752D01*
X128398646Y-95392419D02*
X128351027Y-95440038D01*
X128351027Y-95440038D02*
X128398646Y-95487657D01*
X128398646Y-95487657D02*
X128446265Y-95440038D01*
X128446265Y-95440038D02*
X128398646Y-95392419D01*
X128398646Y-95392419D02*
X128398646Y-95487657D01*
X128874836Y-96392419D02*
X128874836Y-95725752D01*
X128874836Y-95820990D02*
X128922455Y-95773371D01*
X128922455Y-95773371D02*
X129017693Y-95725752D01*
X129017693Y-95725752D02*
X129160550Y-95725752D01*
X129160550Y-95725752D02*
X129255788Y-95773371D01*
X129255788Y-95773371D02*
X129303407Y-95868609D01*
X129303407Y-95868609D02*
X129303407Y-96392419D01*
X129303407Y-95868609D02*
X129351026Y-95773371D01*
X129351026Y-95773371D02*
X129446264Y-95725752D01*
X129446264Y-95725752D02*
X129589121Y-95725752D01*
X129589121Y-95725752D02*
X129684360Y-95773371D01*
X129684360Y-95773371D02*
X129731979Y-95868609D01*
X129731979Y-95868609D02*
X129731979Y-96392419D01*
X130589121Y-96344800D02*
X130493883Y-96392419D01*
X130493883Y-96392419D02*
X130303407Y-96392419D01*
X130303407Y-96392419D02*
X130208169Y-96344800D01*
X130208169Y-96344800D02*
X130160550Y-96249561D01*
X130160550Y-96249561D02*
X130160550Y-95868609D01*
X130160550Y-95868609D02*
X130208169Y-95773371D01*
X130208169Y-95773371D02*
X130303407Y-95725752D01*
X130303407Y-95725752D02*
X130493883Y-95725752D01*
X130493883Y-95725752D02*
X130589121Y-95773371D01*
X130589121Y-95773371D02*
X130636740Y-95868609D01*
X130636740Y-95868609D02*
X130636740Y-95963847D01*
X130636740Y-95963847D02*
X130160550Y-96059085D01*
X131065312Y-96392419D02*
X131065312Y-95725752D01*
X131065312Y-95916228D02*
X131112931Y-95820990D01*
X131112931Y-95820990D02*
X131160550Y-95773371D01*
X131160550Y-95773371D02*
X131255788Y-95725752D01*
X131255788Y-95725752D02*
X131351026Y-95725752D01*
X132351027Y-95725752D02*
X132589122Y-96392419D01*
X132589122Y-96392419D02*
X132827217Y-95725752D01*
X133731979Y-96392419D02*
X133160551Y-96392419D01*
X133446265Y-96392419D02*
X133446265Y-95392419D01*
X133446265Y-95392419D02*
X133351027Y-95535276D01*
X133351027Y-95535276D02*
X133255789Y-95630514D01*
X133255789Y-95630514D02*
X133160551Y-95678133D01*
X134160551Y-96297180D02*
X134208170Y-96344800D01*
X134208170Y-96344800D02*
X134160551Y-96392419D01*
X134160551Y-96392419D02*
X134112932Y-96344800D01*
X134112932Y-96344800D02*
X134160551Y-96297180D01*
X134160551Y-96297180D02*
X134160551Y-96392419D01*
X134827217Y-95392419D02*
X134922455Y-95392419D01*
X134922455Y-95392419D02*
X135017693Y-95440038D01*
X135017693Y-95440038D02*
X135065312Y-95487657D01*
X135065312Y-95487657D02*
X135112931Y-95582895D01*
X135112931Y-95582895D02*
X135160550Y-95773371D01*
X135160550Y-95773371D02*
X135160550Y-96011466D01*
X135160550Y-96011466D02*
X135112931Y-96201942D01*
X135112931Y-96201942D02*
X135065312Y-96297180D01*
X135065312Y-96297180D02*
X135017693Y-96344800D01*
X135017693Y-96344800D02*
X134922455Y-96392419D01*
X134922455Y-96392419D02*
X134827217Y-96392419D01*
X134827217Y-96392419D02*
X134731979Y-96344800D01*
X134731979Y-96344800D02*
X134684360Y-96297180D01*
X134684360Y-96297180D02*
X134636741Y-96201942D01*
X134636741Y-96201942D02*
X134589122Y-96011466D01*
X134589122Y-96011466D02*
X134589122Y-95773371D01*
X134589122Y-95773371D02*
X134636741Y-95582895D01*
X134636741Y-95582895D02*
X134684360Y-95487657D01*
X134684360Y-95487657D02*
X134731979Y-95440038D01*
X134731979Y-95440038D02*
X134827217Y-95392419D01*
D11*
X104748095Y-65704819D02*
X104748095Y-66514342D01*
X104748095Y-66514342D02*
X104795714Y-66609580D01*
X104795714Y-66609580D02*
X104843333Y-66657200D01*
X104843333Y-66657200D02*
X104938571Y-66704819D01*
X104938571Y-66704819D02*
X105129047Y-66704819D01*
X105129047Y-66704819D02*
X105224285Y-66657200D01*
X105224285Y-66657200D02*
X105271904Y-66609580D01*
X105271904Y-66609580D02*
X105319523Y-66514342D01*
X105319523Y-66514342D02*
X105319523Y-65704819D01*
X106319523Y-66704819D02*
X105748095Y-66704819D01*
X106033809Y-66704819D02*
X106033809Y-65704819D01*
X106033809Y-65704819D02*
X105938571Y-65847676D01*
X105938571Y-65847676D02*
X105843333Y-65942914D01*
X105843333Y-65942914D02*
X105748095Y-65990533D01*
X99677200Y-73683332D02*
X99724819Y-73540475D01*
X99724819Y-73540475D02*
X99724819Y-73302380D01*
X99724819Y-73302380D02*
X99677200Y-73207142D01*
X99677200Y-73207142D02*
X99629580Y-73159523D01*
X99629580Y-73159523D02*
X99534342Y-73111904D01*
X99534342Y-73111904D02*
X99439104Y-73111904D01*
X99439104Y-73111904D02*
X99343866Y-73159523D01*
X99343866Y-73159523D02*
X99296247Y-73207142D01*
X99296247Y-73207142D02*
X99248628Y-73302380D01*
X99248628Y-73302380D02*
X99201009Y-73492856D01*
X99201009Y-73492856D02*
X99153390Y-73588094D01*
X99153390Y-73588094D02*
X99105771Y-73635713D01*
X99105771Y-73635713D02*
X99010533Y-73683332D01*
X99010533Y-73683332D02*
X98915295Y-73683332D01*
X98915295Y-73683332D02*
X98820057Y-73635713D01*
X98820057Y-73635713D02*
X98772438Y-73588094D01*
X98772438Y-73588094D02*
X98724819Y-73492856D01*
X98724819Y-73492856D02*
X98724819Y-73254761D01*
X98724819Y-73254761D02*
X98772438Y-73111904D01*
X98724819Y-72778570D02*
X99724819Y-72540475D01*
X99724819Y-72540475D02*
X99010533Y-72349999D01*
X99010533Y-72349999D02*
X99724819Y-72159523D01*
X99724819Y-72159523D02*
X98724819Y-71921428D01*
X98820057Y-71588094D02*
X98772438Y-71540475D01*
X98772438Y-71540475D02*
X98724819Y-71445237D01*
X98724819Y-71445237D02*
X98724819Y-71207142D01*
X98724819Y-71207142D02*
X98772438Y-71111904D01*
X98772438Y-71111904D02*
X98820057Y-71064285D01*
X98820057Y-71064285D02*
X98915295Y-71016666D01*
X98915295Y-71016666D02*
X99010533Y-71016666D01*
X99010533Y-71016666D02*
X99153390Y-71064285D01*
X99153390Y-71064285D02*
X99724819Y-71635713D01*
X99724819Y-71635713D02*
X99724819Y-71016666D01*
X127516190Y-84009580D02*
X127468571Y-84057200D01*
X127468571Y-84057200D02*
X127325714Y-84104819D01*
X127325714Y-84104819D02*
X127230476Y-84104819D01*
X127230476Y-84104819D02*
X127087619Y-84057200D01*
X127087619Y-84057200D02*
X126992381Y-83961961D01*
X126992381Y-83961961D02*
X126944762Y-83866723D01*
X126944762Y-83866723D02*
X126897143Y-83676247D01*
X126897143Y-83676247D02*
X126897143Y-83533390D01*
X126897143Y-83533390D02*
X126944762Y-83342914D01*
X126944762Y-83342914D02*
X126992381Y-83247676D01*
X126992381Y-83247676D02*
X127087619Y-83152438D01*
X127087619Y-83152438D02*
X127230476Y-83104819D01*
X127230476Y-83104819D02*
X127325714Y-83104819D01*
X127325714Y-83104819D02*
X127468571Y-83152438D01*
X127468571Y-83152438D02*
X127516190Y-83200057D01*
X128516190Y-84009580D02*
X128468571Y-84057200D01*
X128468571Y-84057200D02*
X128325714Y-84104819D01*
X128325714Y-84104819D02*
X128230476Y-84104819D01*
X128230476Y-84104819D02*
X128087619Y-84057200D01*
X128087619Y-84057200D02*
X127992381Y-83961961D01*
X127992381Y-83961961D02*
X127944762Y-83866723D01*
X127944762Y-83866723D02*
X127897143Y-83676247D01*
X127897143Y-83676247D02*
X127897143Y-83533390D01*
X127897143Y-83533390D02*
X127944762Y-83342914D01*
X127944762Y-83342914D02*
X127992381Y-83247676D01*
X127992381Y-83247676D02*
X128087619Y-83152438D01*
X128087619Y-83152438D02*
X128230476Y-83104819D01*
X128230476Y-83104819D02*
X128325714Y-83104819D01*
X128325714Y-83104819D02*
X128468571Y-83152438D01*
X128468571Y-83152438D02*
X128516190Y-83200057D01*
X128897143Y-83200057D02*
X128944762Y-83152438D01*
X128944762Y-83152438D02*
X129040000Y-83104819D01*
X129040000Y-83104819D02*
X129278095Y-83104819D01*
X129278095Y-83104819D02*
X129373333Y-83152438D01*
X129373333Y-83152438D02*
X129420952Y-83200057D01*
X129420952Y-83200057D02*
X129468571Y-83295295D01*
X129468571Y-83295295D02*
X129468571Y-83390533D01*
X129468571Y-83390533D02*
X129420952Y-83533390D01*
X129420952Y-83533390D02*
X128849524Y-84104819D01*
X128849524Y-84104819D02*
X129468571Y-84104819D01*
X129659048Y-84200057D02*
X130420952Y-84200057D01*
X131230476Y-84104819D02*
X130897143Y-83628628D01*
X130659048Y-84104819D02*
X130659048Y-83104819D01*
X130659048Y-83104819D02*
X131040000Y-83104819D01*
X131040000Y-83104819D02*
X131135238Y-83152438D01*
X131135238Y-83152438D02*
X131182857Y-83200057D01*
X131182857Y-83200057D02*
X131230476Y-83295295D01*
X131230476Y-83295295D02*
X131230476Y-83438152D01*
X131230476Y-83438152D02*
X131182857Y-83533390D01*
X131182857Y-83533390D02*
X131135238Y-83581009D01*
X131135238Y-83581009D02*
X131040000Y-83628628D01*
X131040000Y-83628628D02*
X130659048Y-83628628D01*
X132182857Y-84104819D02*
X131611429Y-84104819D01*
X131897143Y-84104819D02*
X131897143Y-83104819D01*
X131897143Y-83104819D02*
X131801905Y-83247676D01*
X131801905Y-83247676D02*
X131706667Y-83342914D01*
X131706667Y-83342914D02*
X131611429Y-83390533D01*
X110006667Y-80127200D02*
X110149524Y-80174819D01*
X110149524Y-80174819D02*
X110387619Y-80174819D01*
X110387619Y-80174819D02*
X110482857Y-80127200D01*
X110482857Y-80127200D02*
X110530476Y-80079580D01*
X110530476Y-80079580D02*
X110578095Y-79984342D01*
X110578095Y-79984342D02*
X110578095Y-79889104D01*
X110578095Y-79889104D02*
X110530476Y-79793866D01*
X110530476Y-79793866D02*
X110482857Y-79746247D01*
X110482857Y-79746247D02*
X110387619Y-79698628D01*
X110387619Y-79698628D02*
X110197143Y-79651009D01*
X110197143Y-79651009D02*
X110101905Y-79603390D01*
X110101905Y-79603390D02*
X110054286Y-79555771D01*
X110054286Y-79555771D02*
X110006667Y-79460533D01*
X110006667Y-79460533D02*
X110006667Y-79365295D01*
X110006667Y-79365295D02*
X110054286Y-79270057D01*
X110054286Y-79270057D02*
X110101905Y-79222438D01*
X110101905Y-79222438D02*
X110197143Y-79174819D01*
X110197143Y-79174819D02*
X110435238Y-79174819D01*
X110435238Y-79174819D02*
X110578095Y-79222438D01*
X110911429Y-79174819D02*
X111149524Y-80174819D01*
X111149524Y-80174819D02*
X111340000Y-79460533D01*
X111340000Y-79460533D02*
X111530476Y-80174819D01*
X111530476Y-80174819D02*
X111768572Y-79174819D01*
X112673333Y-80174819D02*
X112101905Y-80174819D01*
X112387619Y-80174819D02*
X112387619Y-79174819D01*
X112387619Y-79174819D02*
X112292381Y-79317676D01*
X112292381Y-79317676D02*
X112197143Y-79412914D01*
X112197143Y-79412914D02*
X112101905Y-79460533D01*
X116903809Y-71744819D02*
X116427619Y-71744819D01*
X116427619Y-71744819D02*
X116427619Y-70744819D01*
X117237143Y-71221009D02*
X117570476Y-71221009D01*
X117713333Y-71744819D02*
X117237143Y-71744819D01*
X117237143Y-71744819D02*
X117237143Y-70744819D01*
X117237143Y-70744819D02*
X117713333Y-70744819D01*
X118141905Y-71744819D02*
X118141905Y-70744819D01*
X118141905Y-70744819D02*
X118380000Y-70744819D01*
X118380000Y-70744819D02*
X118522857Y-70792438D01*
X118522857Y-70792438D02*
X118618095Y-70887676D01*
X118618095Y-70887676D02*
X118665714Y-70982914D01*
X118665714Y-70982914D02*
X118713333Y-71173390D01*
X118713333Y-71173390D02*
X118713333Y-71316247D01*
X118713333Y-71316247D02*
X118665714Y-71506723D01*
X118665714Y-71506723D02*
X118618095Y-71601961D01*
X118618095Y-71601961D02*
X118522857Y-71697200D01*
X118522857Y-71697200D02*
X118380000Y-71744819D01*
X118380000Y-71744819D02*
X118141905Y-71744819D01*
X119665714Y-71744819D02*
X119094286Y-71744819D01*
X119380000Y-71744819D02*
X119380000Y-70744819D01*
X119380000Y-70744819D02*
X119284762Y-70887676D01*
X119284762Y-70887676D02*
X119189524Y-70982914D01*
X119189524Y-70982914D02*
X119094286Y-71030533D01*
X119856191Y-71840057D02*
X120618095Y-71840057D01*
X121427619Y-71744819D02*
X121094286Y-71268628D01*
X120856191Y-71744819D02*
X120856191Y-70744819D01*
X120856191Y-70744819D02*
X121237143Y-70744819D01*
X121237143Y-70744819D02*
X121332381Y-70792438D01*
X121332381Y-70792438D02*
X121380000Y-70840057D01*
X121380000Y-70840057D02*
X121427619Y-70935295D01*
X121427619Y-70935295D02*
X121427619Y-71078152D01*
X121427619Y-71078152D02*
X121380000Y-71173390D01*
X121380000Y-71173390D02*
X121332381Y-71221009D01*
X121332381Y-71221009D02*
X121237143Y-71268628D01*
X121237143Y-71268628D02*
X120856191Y-71268628D01*
X122380000Y-71744819D02*
X121808572Y-71744819D01*
X122094286Y-71744819D02*
X122094286Y-70744819D01*
X122094286Y-70744819D02*
X121999048Y-70887676D01*
X121999048Y-70887676D02*
X121903810Y-70982914D01*
X121903810Y-70982914D02*
X121808572Y-71030533D01*
X131684819Y-71858094D02*
X130684819Y-71858094D01*
X130684819Y-71858094D02*
X130684819Y-71619999D01*
X130684819Y-71619999D02*
X130732438Y-71477142D01*
X130732438Y-71477142D02*
X130827676Y-71381904D01*
X130827676Y-71381904D02*
X130922914Y-71334285D01*
X130922914Y-71334285D02*
X131113390Y-71286666D01*
X131113390Y-71286666D02*
X131256247Y-71286666D01*
X131256247Y-71286666D02*
X131446723Y-71334285D01*
X131446723Y-71334285D02*
X131541961Y-71381904D01*
X131541961Y-71381904D02*
X131637200Y-71477142D01*
X131637200Y-71477142D02*
X131684819Y-71619999D01*
X131684819Y-71619999D02*
X131684819Y-71858094D01*
X131684819Y-70334285D02*
X131684819Y-70905713D01*
X131684819Y-70619999D02*
X130684819Y-70619999D01*
X130684819Y-70619999D02*
X130827676Y-70715237D01*
X130827676Y-70715237D02*
X130922914Y-70810475D01*
X130922914Y-70810475D02*
X130970533Y-70905713D01*
X116903809Y-66664819D02*
X116427619Y-66664819D01*
X116427619Y-66664819D02*
X116427619Y-65664819D01*
X117237143Y-66141009D02*
X117570476Y-66141009D01*
X117713333Y-66664819D02*
X117237143Y-66664819D01*
X117237143Y-66664819D02*
X117237143Y-65664819D01*
X117237143Y-65664819D02*
X117713333Y-65664819D01*
X118141905Y-66664819D02*
X118141905Y-65664819D01*
X118141905Y-65664819D02*
X118380000Y-65664819D01*
X118380000Y-65664819D02*
X118522857Y-65712438D01*
X118522857Y-65712438D02*
X118618095Y-65807676D01*
X118618095Y-65807676D02*
X118665714Y-65902914D01*
X118665714Y-65902914D02*
X118713333Y-66093390D01*
X118713333Y-66093390D02*
X118713333Y-66236247D01*
X118713333Y-66236247D02*
X118665714Y-66426723D01*
X118665714Y-66426723D02*
X118618095Y-66521961D01*
X118618095Y-66521961D02*
X118522857Y-66617200D01*
X118522857Y-66617200D02*
X118380000Y-66664819D01*
X118380000Y-66664819D02*
X118141905Y-66664819D01*
X119094286Y-65760057D02*
X119141905Y-65712438D01*
X119141905Y-65712438D02*
X119237143Y-65664819D01*
X119237143Y-65664819D02*
X119475238Y-65664819D01*
X119475238Y-65664819D02*
X119570476Y-65712438D01*
X119570476Y-65712438D02*
X119618095Y-65760057D01*
X119618095Y-65760057D02*
X119665714Y-65855295D01*
X119665714Y-65855295D02*
X119665714Y-65950533D01*
X119665714Y-65950533D02*
X119618095Y-66093390D01*
X119618095Y-66093390D02*
X119046667Y-66664819D01*
X119046667Y-66664819D02*
X119665714Y-66664819D01*
X119856191Y-66760057D02*
X120618095Y-66760057D01*
X121427619Y-66664819D02*
X121094286Y-66188628D01*
X120856191Y-66664819D02*
X120856191Y-65664819D01*
X120856191Y-65664819D02*
X121237143Y-65664819D01*
X121237143Y-65664819D02*
X121332381Y-65712438D01*
X121332381Y-65712438D02*
X121380000Y-65760057D01*
X121380000Y-65760057D02*
X121427619Y-65855295D01*
X121427619Y-65855295D02*
X121427619Y-65998152D01*
X121427619Y-65998152D02*
X121380000Y-66093390D01*
X121380000Y-66093390D02*
X121332381Y-66141009D01*
X121332381Y-66141009D02*
X121237143Y-66188628D01*
X121237143Y-66188628D02*
X120856191Y-66188628D01*
X122380000Y-66664819D02*
X121808572Y-66664819D01*
X122094286Y-66664819D02*
X122094286Y-65664819D01*
X122094286Y-65664819D02*
X121999048Y-65807676D01*
X121999048Y-65807676D02*
X121903810Y-65902914D01*
X121903810Y-65902914D02*
X121808572Y-65950533D01*
X127516190Y-89089580D02*
X127468571Y-89137200D01*
X127468571Y-89137200D02*
X127325714Y-89184819D01*
X127325714Y-89184819D02*
X127230476Y-89184819D01*
X127230476Y-89184819D02*
X127087619Y-89137200D01*
X127087619Y-89137200D02*
X126992381Y-89041961D01*
X126992381Y-89041961D02*
X126944762Y-88946723D01*
X126944762Y-88946723D02*
X126897143Y-88756247D01*
X126897143Y-88756247D02*
X126897143Y-88613390D01*
X126897143Y-88613390D02*
X126944762Y-88422914D01*
X126944762Y-88422914D02*
X126992381Y-88327676D01*
X126992381Y-88327676D02*
X127087619Y-88232438D01*
X127087619Y-88232438D02*
X127230476Y-88184819D01*
X127230476Y-88184819D02*
X127325714Y-88184819D01*
X127325714Y-88184819D02*
X127468571Y-88232438D01*
X127468571Y-88232438D02*
X127516190Y-88280057D01*
X128516190Y-89089580D02*
X128468571Y-89137200D01*
X128468571Y-89137200D02*
X128325714Y-89184819D01*
X128325714Y-89184819D02*
X128230476Y-89184819D01*
X128230476Y-89184819D02*
X128087619Y-89137200D01*
X128087619Y-89137200D02*
X127992381Y-89041961D01*
X127992381Y-89041961D02*
X127944762Y-88946723D01*
X127944762Y-88946723D02*
X127897143Y-88756247D01*
X127897143Y-88756247D02*
X127897143Y-88613390D01*
X127897143Y-88613390D02*
X127944762Y-88422914D01*
X127944762Y-88422914D02*
X127992381Y-88327676D01*
X127992381Y-88327676D02*
X128087619Y-88232438D01*
X128087619Y-88232438D02*
X128230476Y-88184819D01*
X128230476Y-88184819D02*
X128325714Y-88184819D01*
X128325714Y-88184819D02*
X128468571Y-88232438D01*
X128468571Y-88232438D02*
X128516190Y-88280057D01*
X129468571Y-89184819D02*
X128897143Y-89184819D01*
X129182857Y-89184819D02*
X129182857Y-88184819D01*
X129182857Y-88184819D02*
X129087619Y-88327676D01*
X129087619Y-88327676D02*
X128992381Y-88422914D01*
X128992381Y-88422914D02*
X128897143Y-88470533D01*
X129659048Y-89280057D02*
X130420952Y-89280057D01*
X131230476Y-89184819D02*
X130897143Y-88708628D01*
X130659048Y-89184819D02*
X130659048Y-88184819D01*
X130659048Y-88184819D02*
X131040000Y-88184819D01*
X131040000Y-88184819D02*
X131135238Y-88232438D01*
X131135238Y-88232438D02*
X131182857Y-88280057D01*
X131182857Y-88280057D02*
X131230476Y-88375295D01*
X131230476Y-88375295D02*
X131230476Y-88518152D01*
X131230476Y-88518152D02*
X131182857Y-88613390D01*
X131182857Y-88613390D02*
X131135238Y-88661009D01*
X131135238Y-88661009D02*
X131040000Y-88708628D01*
X131040000Y-88708628D02*
X130659048Y-88708628D01*
X132182857Y-89184819D02*
X131611429Y-89184819D01*
X131897143Y-89184819D02*
X131897143Y-88184819D01*
X131897143Y-88184819D02*
X131801905Y-88327676D01*
X131801905Y-88327676D02*
X131706667Y-88422914D01*
X131706667Y-88422914D02*
X131611429Y-88470533D01*
X93099047Y-94761009D02*
X93241904Y-94808628D01*
X93241904Y-94808628D02*
X93289523Y-94856247D01*
X93289523Y-94856247D02*
X93337142Y-94951485D01*
X93337142Y-94951485D02*
X93337142Y-95094342D01*
X93337142Y-95094342D02*
X93289523Y-95189580D01*
X93289523Y-95189580D02*
X93241904Y-95237200D01*
X93241904Y-95237200D02*
X93146666Y-95284819D01*
X93146666Y-95284819D02*
X92765714Y-95284819D01*
X92765714Y-95284819D02*
X92765714Y-94284819D01*
X92765714Y-94284819D02*
X93099047Y-94284819D01*
X93099047Y-94284819D02*
X93194285Y-94332438D01*
X93194285Y-94332438D02*
X93241904Y-94380057D01*
X93241904Y-94380057D02*
X93289523Y-94475295D01*
X93289523Y-94475295D02*
X93289523Y-94570533D01*
X93289523Y-94570533D02*
X93241904Y-94665771D01*
X93241904Y-94665771D02*
X93194285Y-94713390D01*
X93194285Y-94713390D02*
X93099047Y-94761009D01*
X93099047Y-94761009D02*
X92765714Y-94761009D01*
X93670476Y-94284819D02*
X94337142Y-94284819D01*
X94337142Y-94284819D02*
X93670476Y-95284819D01*
X93670476Y-95284819D02*
X94337142Y-95284819D01*
X95241904Y-95284819D02*
X94670476Y-95284819D01*
X94956190Y-95284819D02*
X94956190Y-94284819D01*
X94956190Y-94284819D02*
X94860952Y-94427676D01*
X94860952Y-94427676D02*
X94765714Y-94522914D01*
X94765714Y-94522914D02*
X94670476Y-94570533D01*
X97409048Y-90243866D02*
X98170953Y-90243866D01*
X97790000Y-90624819D02*
X97790000Y-89862914D01*
D12*
%TO.C,U1*%
X102860000Y-67250000D02*
X102860000Y-77530000D01*
X102860000Y-77530000D02*
X108160000Y-77530000D01*
X104510000Y-67250000D02*
X102860000Y-67250000D01*
X108160000Y-67250000D02*
X106510000Y-67250000D01*
X108160000Y-77530000D02*
X108160000Y-67250000D01*
X106510000Y-67250000D02*
G75*
G02*
X104510000Y-67250000I-1000000J0D01*
G01*
%TO.C,SW2*%
X88800000Y-67330000D02*
X98240000Y-67330000D01*
X88800000Y-77370000D02*
X88800000Y-67330000D01*
X88800000Y-77370000D02*
X98240000Y-77370000D01*
X91920000Y-73950000D02*
X91920000Y-70650000D01*
X95220000Y-70650000D02*
X91920000Y-70650000D01*
X95220000Y-73950000D02*
X91920000Y-73950000D01*
X95220000Y-73950000D02*
X95220000Y-70650000D01*
X97490000Y-67080000D02*
X98490000Y-67080000D01*
X98240000Y-77370000D02*
X98240000Y-67330000D01*
X98490000Y-68080000D02*
X98490000Y-67080000D01*
%TO.C,CC2_R1*%
X126270000Y-79910000D02*
X126270000Y-80240000D01*
X126270000Y-82650000D02*
X126270000Y-82320000D01*
X132810000Y-79910000D02*
X126270000Y-79910000D01*
X132810000Y-80240000D02*
X132810000Y-79910000D01*
X132810000Y-82320000D02*
X132810000Y-82650000D01*
X132810000Y-82650000D02*
X126270000Y-82650000D01*
%TO.C,SW1*%
X105650000Y-81520000D02*
X105650000Y-84030000D01*
X105650000Y-81520000D02*
X117870000Y-81520000D01*
X105650000Y-86330000D02*
X105650000Y-88930000D01*
X105650000Y-91230000D02*
X105650000Y-93740000D01*
X117870000Y-81520000D02*
X117870000Y-84030000D01*
X117870000Y-86330000D02*
X117870000Y-88930000D01*
X117870000Y-91230000D02*
X117870000Y-93740000D01*
X117870000Y-93740000D02*
X105650000Y-93740000D01*
X115310000Y-87630000D02*
G75*
G02*
X108210000Y-87630000I-3550000J0D01*
G01*
X108210000Y-87630000D02*
G75*
G02*
X115310000Y-87630000I3550000J0D01*
G01*
%TO.C,LED1_R1*%
X116110000Y-72290000D02*
X122650000Y-72290000D01*
X116110000Y-72620000D02*
X116110000Y-72290000D01*
X116110000Y-74700000D02*
X116110000Y-75030000D01*
X116110000Y-75030000D02*
X122650000Y-75030000D01*
X122650000Y-72290000D02*
X122650000Y-72620000D01*
X122650000Y-75030000D02*
X122650000Y-74700000D01*
%TO.C,D1*%
X127190000Y-69560000D02*
X127034000Y-69560000D01*
X129506000Y-69560000D02*
X129350000Y-69560000D01*
X127189939Y-72791397D02*
G75*
G02*
X127034484Y-69560000I1080061J1671397D01*
G01*
X127189951Y-72160910D02*
G75*
G02*
X127190000Y-70079039I1080049J1040910D01*
G01*
X129350000Y-70079039D02*
G75*
G02*
X129350049Y-72160910I-1080000J-1040961D01*
G01*
X129505516Y-69560000D02*
G75*
G02*
X129350061Y-72791397I-1235516J-1560000D01*
G01*
%TO.C,C1*%
X132280000Y-68890000D02*
X132280000Y-73430000D01*
X132295000Y-68890000D02*
X132280000Y-68890000D01*
X132295000Y-73430000D02*
X132280000Y-73430000D01*
X134420000Y-68890000D02*
X134405000Y-68890000D01*
X134420000Y-68890000D02*
X134420000Y-73430000D01*
X134420000Y-73430000D02*
X134405000Y-73430000D01*
%TO.C,LED2_R1*%
X116110000Y-67210000D02*
X122650000Y-67210000D01*
X116110000Y-67540000D02*
X116110000Y-67210000D01*
X116110000Y-69620000D02*
X116110000Y-69950000D01*
X116110000Y-69950000D02*
X122650000Y-69950000D01*
X122650000Y-67210000D02*
X122650000Y-67540000D01*
X122650000Y-69950000D02*
X122650000Y-69620000D01*
%TO.C,CC1_R1*%
X126270000Y-84990000D02*
X126270000Y-85320000D01*
X126270000Y-87730000D02*
X126270000Y-87400000D01*
X132810000Y-84990000D02*
X126270000Y-84990000D01*
X132810000Y-85320000D02*
X132810000Y-84990000D01*
X132810000Y-87400000D02*
X132810000Y-87730000D01*
X132810000Y-87730000D02*
X126270000Y-87730000D01*
%TO.C,BZ1*%
X100080000Y-87630000D02*
G75*
G02*
X87880000Y-87630000I-6100000J0D01*
G01*
X87880000Y-87630000D02*
G75*
G02*
X100080000Y-87630000I6100000J0D01*
G01*
%TO.C,J1*%
X140340000Y-75430000D02*
X142340000Y-75430000D01*
X140340000Y-84590000D02*
X142340000Y-84590000D01*
X144240000Y-75430000D02*
X145750000Y-75430000D01*
X144240000Y-84590000D02*
X145750000Y-84590000D01*
X145750000Y-84590000D02*
X145750000Y-75430000D01*
%TD*%
M02*
